<svg xmlns="http://www.w3.org/2000/svg" viewBox="0 0 1618 500" font-family="-apple-system, Segoe UI, Roboto, sans-serif">
<rect x="0" y="0" width="1618" height="500" rx="20" fill="#0d0f14"/>
<text x="170" y="46" fill="#F8FAFC" font-size="26" font-weight="700">Radio Button Selection Frames — 76 icons</text>
<text x="170" y="70" fill="#64748B" font-size="16">19 colours × 4 styles · transparent centre for the key title</text>
<text x="20" y="140.0" fill="#CBD5E1" font-size="16" font-weight="600">Frame</text>
<rect x="170" y="101.0" width="66" height="66" rx="13.2" fill="#181b22"/>
<rect x="175.0" y="106.0" width="55.9" height="55.9" rx="11.9" fill="none" stroke="#000" stroke-opacity="0.38" stroke-width="7.8"/><rect x="175.0" y="106.0" width="55.9" height="55.9" rx="11.9" fill="none" stroke="#FFFFFF" stroke-width="5.0"/>
<rect x="246" y="101.0" width="66" height="66" rx="13.2" fill="#181b22"/>
<rect x="251.0" y="106.0" width="55.9" height="55.9" rx="11.9" fill="none" stroke="#000" stroke-opacity="0.38" stroke-width="7.8"/><rect x="251.0" y="106.0" width="55.9" height="55.9" rx="11.9" fill="none" stroke="#94A3B8" stroke-width="5.0"/>
<rect x="322" y="101.0" width="66" height="66" rx="13.2" fill="#181b22"/>
<rect x="327.0" y="106.0" width="55.9" height="55.9" rx="11.9" fill="none" stroke="#000" stroke-opacity="0.38" stroke-width="7.8"/><rect x="327.0" y="106.0" width="55.9" height="55.9" rx="11.9" fill="none" stroke="#EF4444" stroke-width="5.0"/>
<rect x="398" y="101.0" width="66" height="66" rx="13.2" fill="#181b22"/>
<rect x="403.0" y="106.0" width="55.9" height="55.9" rx="11.9" fill="none" stroke="#000" stroke-opacity="0.38" stroke-width="7.8"/><rect x="403.0" y="106.0" width="55.9" height="55.9" rx="11.9" fill="none" stroke="#F97316" stroke-width="5.0"/>
<rect x="474" y="101.0" width="66" height="66" rx="13.2" fill="#181b22"/>
<rect x="479.0" y="106.0" width="55.9" height="55.9" rx="11.9" fill="none" stroke="#000" stroke-opacity="0.38" stroke-width="7.8"/><rect x="479.0" y="106.0" width="55.9" height="55.9" rx="11.9" fill="none" stroke="#F59E0B" stroke-width="5.0"/>
<rect x="550" y="101.0" width="66" height="66" rx="13.2" fill="#181b22"/>
<rect x="555.0" y="106.0" width="55.9" height="55.9" rx="11.9" fill="none" stroke="#000" stroke-opacity="0.38" stroke-width="7.8"/><rect x="555.0" y="106.0" width="55.9" height="55.9" rx="11.9" fill="none" stroke="#FDE047" stroke-width="5.0"/>
<rect x="626" y="101.0" width="66" height="66" rx="13.2" fill="#181b22"/>
<rect x="631.0" y="106.0" width="55.9" height="55.9" rx="11.9" fill="none" stroke="#000" stroke-opacity="0.38" stroke-width="7.8"/><rect x="631.0" y="106.0" width="55.9" height="55.9" rx="11.9" fill="none" stroke="#84CC16" stroke-width="5.0"/>
<rect x="702" y="101.0" width="66" height="66" rx="13.2" fill="#181b22"/>
<rect x="707.0" y="106.0" width="55.9" height="55.9" rx="11.9" fill="none" stroke="#000" stroke-opacity="0.38" stroke-width="7.8"/><rect x="707.0" y="106.0" width="55.9" height="55.9" rx="11.9" fill="none" stroke="#22C55E" stroke-width="5.0"/>
<rect x="778" y="101.0" width="66" height="66" rx="13.2" fill="#181b22"/>
<rect x="783.0" y="106.0" width="55.9" height="55.9" rx="11.9" fill="none" stroke="#000" stroke-opacity="0.38" stroke-width="7.8"/><rect x="783.0" y="106.0" width="55.9" height="55.9" rx="11.9" fill="none" stroke="#10B981" stroke-width="5.0"/>
<rect x="854" y="101.0" width="66" height="66" rx="13.2" fill="#181b22"/>
<rect x="859.0" y="106.0" width="55.9" height="55.9" rx="11.9" fill="none" stroke="#000" stroke-opacity="0.38" stroke-width="7.8"/><rect x="859.0" y="106.0" width="55.9" height="55.9" rx="11.9" fill="none" stroke="#14B8A6" stroke-width="5.0"/>
<rect x="930" y="101.0" width="66" height="66" rx="13.2" fill="#181b22"/>
<rect x="935.0" y="106.0" width="55.9" height="55.9" rx="11.9" fill="none" stroke="#000" stroke-opacity="0.38" stroke-width="7.8"/><rect x="935.0" y="106.0" width="55.9" height="55.9" rx="11.9" fill="none" stroke="#22D3EE" stroke-width="5.0"/>
<rect x="1006" y="101.0" width="66" height="66" rx="13.2" fill="#181b22"/>
<rect x="1011.0" y="106.0" width="55.9" height="55.9" rx="11.9" fill="none" stroke="#000" stroke-opacity="0.38" stroke-width="7.8"/><rect x="1011.0" y="106.0" width="55.9" height="55.9" rx="11.9" fill="none" stroke="#38BDF8" stroke-width="5.0"/>
<rect x="1082" y="101.0" width="66" height="66" rx="13.2" fill="#181b22"/>
<rect x="1087.0" y="106.0" width="55.9" height="55.9" rx="11.9" fill="none" stroke="#000" stroke-opacity="0.38" stroke-width="7.8"/><rect x="1087.0" y="106.0" width="55.9" height="55.9" rx="11.9" fill="none" stroke="#3B82F6" stroke-width="5.0"/>
<rect x="1158" y="101.0" width="66" height="66" rx="13.2" fill="#181b22"/>
<rect x="1163.0" y="106.0" width="55.9" height="55.9" rx="11.9" fill="none" stroke="#000" stroke-opacity="0.38" stroke-width="7.8"/><rect x="1163.0" y="106.0" width="55.9" height="55.9" rx="11.9" fill="none" stroke="#6366F1" stroke-width="5.0"/>
<rect x="1234" y="101.0" width="66" height="66" rx="13.2" fill="#181b22"/>
<rect x="1239.0" y="106.0" width="55.9" height="55.9" rx="11.9" fill="none" stroke="#000" stroke-opacity="0.38" stroke-width="7.8"/><rect x="1239.0" y="106.0" width="55.9" height="55.9" rx="11.9" fill="none" stroke="#8B5CF6" stroke-width="5.0"/>
<rect x="1310" y="101.0" width="66" height="66" rx="13.2" fill="#181b22"/>
<rect x="1315.0" y="106.0" width="55.9" height="55.9" rx="11.9" fill="none" stroke="#000" stroke-opacity="0.38" stroke-width="7.8"/><rect x="1315.0" y="106.0" width="55.9" height="55.9" rx="11.9" fill="none" stroke="#A855F7" stroke-width="5.0"/>
<rect x="1386" y="101.0" width="66" height="66" rx="13.2" fill="#181b22"/>
<rect x="1391.0" y="106.0" width="55.9" height="55.9" rx="11.9" fill="none" stroke="#000" stroke-opacity="0.38" stroke-width="7.8"/><rect x="1391.0" y="106.0" width="55.9" height="55.9" rx="11.9" fill="none" stroke="#D946EF" stroke-width="5.0"/>
<rect x="1462" y="101.0" width="66" height="66" rx="13.2" fill="#181b22"/>
<rect x="1467.0" y="106.0" width="55.9" height="55.9" rx="11.9" fill="none" stroke="#000" stroke-opacity="0.38" stroke-width="7.8"/><rect x="1467.0" y="106.0" width="55.9" height="55.9" rx="11.9" fill="none" stroke="#EC4899" stroke-width="5.0"/>
<rect x="1538" y="101.0" width="66" height="66" rx="13.2" fill="#181b22"/>
<rect x="1543.0" y="106.0" width="55.9" height="55.9" rx="11.9" fill="none" stroke="#000" stroke-opacity="0.38" stroke-width="7.8"/><rect x="1543.0" y="106.0" width="55.9" height="55.9" rx="11.9" fill="none" stroke="#F43F5E" stroke-width="5.0"/>
<text x="20" y="240.0" fill="#CBD5E1" font-size="16" font-weight="600">Corner Notch</text>
<rect x="170" y="201.0" width="66" height="66" rx="13.2" fill="#181b22"/>
<path d="M177.3 227.6 L177.3 208.3 L196.6 208.3" fill="none" stroke="#FFFFFF" stroke-width="6.0" stroke-linecap="round" stroke-linejoin="round"/><path d="M209.4 208.3 L228.7 208.3 L228.7 227.6" fill="none" stroke="#FFFFFF" stroke-width="6.0" stroke-linecap="round" stroke-linejoin="round"/><path d="M228.7 240.4 L228.7 259.7 L209.4 259.7" fill="none" stroke="#FFFFFF" stroke-width="6.0" stroke-linecap="round" stroke-linejoin="round"/><path d="M196.6 259.7 L177.3 259.7 L177.3 240.4" fill="none" stroke="#FFFFFF" stroke-width="6.0" stroke-linecap="round" stroke-linejoin="round"/>
<rect x="246" y="201.0" width="66" height="66" rx="13.2" fill="#181b22"/>
<path d="M253.3 227.6 L253.3 208.3 L272.6 208.3" fill="none" stroke="#94A3B8" stroke-width="6.0" stroke-linecap="round" stroke-linejoin="round"/><path d="M285.4 208.3 L304.7 208.3 L304.7 227.6" fill="none" stroke="#94A3B8" stroke-width="6.0" stroke-linecap="round" stroke-linejoin="round"/><path d="M304.7 240.4 L304.7 259.7 L285.4 259.7" fill="none" stroke="#94A3B8" stroke-width="6.0" stroke-linecap="round" stroke-linejoin="round"/><path d="M272.6 259.7 L253.3 259.7 L253.3 240.4" fill="none" stroke="#94A3B8" stroke-width="6.0" stroke-linecap="round" stroke-linejoin="round"/>
<rect x="322" y="201.0" width="66" height="66" rx="13.2" fill="#181b22"/>
<path d="M329.3 227.6 L329.3 208.3 L348.6 208.3" fill="none" stroke="#EF4444" stroke-width="6.0" stroke-linecap="round" stroke-linejoin="round"/><path d="M361.4 208.3 L380.7 208.3 L380.7 227.6" fill="none" stroke="#EF4444" stroke-width="6.0" stroke-linecap="round" stroke-linejoin="round"/><path d="M380.7 240.4 L380.7 259.7 L361.4 259.7" fill="none" stroke="#EF4444" stroke-width="6.0" stroke-linecap="round" stroke-linejoin="round"/><path d="M348.6 259.7 L329.3 259.7 L329.3 240.4" fill="none" stroke="#EF4444" stroke-width="6.0" stroke-linecap="round" stroke-linejoin="round"/>
<rect x="398" y="201.0" width="66" height="66" rx="13.2" fill="#181b22"/>
<path d="M405.3 227.6 L405.3 208.3 L424.6 208.3" fill="none" stroke="#F97316" stroke-width="6.0" stroke-linecap="round" stroke-linejoin="round"/><path d="M437.4 208.3 L456.7 208.3 L456.7 227.6" fill="none" stroke="#F97316" stroke-width="6.0" stroke-linecap="round" stroke-linejoin="round"/><path d="M456.7 240.4 L456.7 259.7 L437.4 259.7" fill="none" stroke="#F97316" stroke-width="6.0" stroke-linecap="round" stroke-linejoin="round"/><path d="M424.6 259.7 L405.3 259.7 L405.3 240.4" fill="none" stroke="#F97316" stroke-width="6.0" stroke-linecap="round" stroke-linejoin="round"/>
<rect x="474" y="201.0" width="66" height="66" rx="13.2" fill="#181b22"/>
<path d="M481.3 227.6 L481.3 208.3 L500.6 208.3" fill="none" stroke="#F59E0B" stroke-width="6.0" stroke-linecap="round" stroke-linejoin="round"/><path d="M513.4 208.3 L532.7 208.3 L532.7 227.6" fill="none" stroke="#F59E0B" stroke-width="6.0" stroke-linecap="round" stroke-linejoin="round"/><path d="M532.7 240.4 L532.7 259.7 L513.4 259.7" fill="none" stroke="#F59E0B" stroke-width="6.0" stroke-linecap="round" stroke-linejoin="round"/><path d="M500.6 259.7 L481.3 259.7 L481.3 240.4" fill="none" stroke="#F59E0B" stroke-width="6.0" stroke-linecap="round" stroke-linejoin="round"/>
<rect x="550" y="201.0" width="66" height="66" rx="13.2" fill="#181b22"/>
<path d="M557.3 227.6 L557.3 208.3 L576.6 208.3" fill="none" stroke="#FDE047" stroke-width="6.0" stroke-linecap="round" stroke-linejoin="round"/><path d="M589.4 208.3 L608.7 208.3 L608.7 227.6" fill="none" stroke="#FDE047" stroke-width="6.0" stroke-linecap="round" stroke-linejoin="round"/><path d="M608.7 240.4 L608.7 259.7 L589.4 259.7" fill="none" stroke="#FDE047" stroke-width="6.0" stroke-linecap="round" stroke-linejoin="round"/><path d="M576.6 259.7 L557.3 259.7 L557.3 240.4" fill="none" stroke="#FDE047" stroke-width="6.0" stroke-linecap="round" stroke-linejoin="round"/>
<rect x="626" y="201.0" width="66" height="66" rx="13.2" fill="#181b22"/>
<path d="M633.3 227.6 L633.3 208.3 L652.6 208.3" fill="none" stroke="#84CC16" stroke-width="6.0" stroke-linecap="round" stroke-linejoin="round"/><path d="M665.4 208.3 L684.7 208.3 L684.7 227.6" fill="none" stroke="#84CC16" stroke-width="6.0" stroke-linecap="round" stroke-linejoin="round"/><path d="M684.7 240.4 L684.7 259.7 L665.4 259.7" fill="none" stroke="#84CC16" stroke-width="6.0" stroke-linecap="round" stroke-linejoin="round"/><path d="M652.6 259.7 L633.3 259.7 L633.3 240.4" fill="none" stroke="#84CC16" stroke-width="6.0" stroke-linecap="round" stroke-linejoin="round"/>
<rect x="702" y="201.0" width="66" height="66" rx="13.2" fill="#181b22"/>
<path d="M709.3 227.6 L709.3 208.3 L728.6 208.3" fill="none" stroke="#22C55E" stroke-width="6.0" stroke-linecap="round" stroke-linejoin="round"/><path d="M741.4 208.3 L760.7 208.3 L760.7 227.6" fill="none" stroke="#22C55E" stroke-width="6.0" stroke-linecap="round" stroke-linejoin="round"/><path d="M760.7 240.4 L760.7 259.7 L741.4 259.7" fill="none" stroke="#22C55E" stroke-width="6.0" stroke-linecap="round" stroke-linejoin="round"/><path d="M728.6 259.7 L709.3 259.7 L709.3 240.4" fill="none" stroke="#22C55E" stroke-width="6.0" stroke-linecap="round" stroke-linejoin="round"/>
<rect x="778" y="201.0" width="66" height="66" rx="13.2" fill="#181b22"/>
<path d="M785.3 227.6 L785.3 208.3 L804.6 208.3" fill="none" stroke="#10B981" stroke-width="6.0" stroke-linecap="round" stroke-linejoin="round"/><path d="M817.4 208.3 L836.7 208.3 L836.7 227.6" fill="none" stroke="#10B981" stroke-width="6.0" stroke-linecap="round" stroke-linejoin="round"/><path d="M836.7 240.4 L836.7 259.7 L817.4 259.7" fill="none" stroke="#10B981" stroke-width="6.0" stroke-linecap="round" stroke-linejoin="round"/><path d="M804.6 259.7 L785.3 259.7 L785.3 240.4" fill="none" stroke="#10B981" stroke-width="6.0" stroke-linecap="round" stroke-linejoin="round"/>
<rect x="854" y="201.0" width="66" height="66" rx="13.2" fill="#181b22"/>
<path d="M861.3 227.6 L861.3 208.3 L880.6 208.3" fill="none" stroke="#14B8A6" stroke-width="6.0" stroke-linecap="round" stroke-linejoin="round"/><path d="M893.4 208.3 L912.7 208.3 L912.7 227.6" fill="none" stroke="#14B8A6" stroke-width="6.0" stroke-linecap="round" stroke-linejoin="round"/><path d="M912.7 240.4 L912.7 259.7 L893.4 259.7" fill="none" stroke="#14B8A6" stroke-width="6.0" stroke-linecap="round" stroke-linejoin="round"/><path d="M880.6 259.7 L861.3 259.7 L861.3 240.4" fill="none" stroke="#14B8A6" stroke-width="6.0" stroke-linecap="round" stroke-linejoin="round"/>
<rect x="930" y="201.0" width="66" height="66" rx="13.2" fill="#181b22"/>
<path d="M937.3 227.6 L937.3 208.3 L956.6 208.3" fill="none" stroke="#22D3EE" stroke-width="6.0" stroke-linecap="round" stroke-linejoin="round"/><path d="M969.4 208.3 L988.7 208.3 L988.7 227.6" fill="none" stroke="#22D3EE" stroke-width="6.0" stroke-linecap="round" stroke-linejoin="round"/><path d="M988.7 240.4 L988.7 259.7 L969.4 259.7" fill="none" stroke="#22D3EE" stroke-width="6.0" stroke-linecap="round" stroke-linejoin="round"/><path d="M956.6 259.7 L937.3 259.7 L937.3 240.4" fill="none" stroke="#22D3EE" stroke-width="6.0" stroke-linecap="round" stroke-linejoin="round"/>
<rect x="1006" y="201.0" width="66" height="66" rx="13.2" fill="#181b22"/>
<path d="M1013.3 227.6 L1013.3 208.3 L1032.6 208.3" fill="none" stroke="#38BDF8" stroke-width="6.0" stroke-linecap="round" stroke-linejoin="round"/><path d="M1045.4 208.3 L1064.7 208.3 L1064.7 227.6" fill="none" stroke="#38BDF8" stroke-width="6.0" stroke-linecap="round" stroke-linejoin="round"/><path d="M1064.7 240.4 L1064.7 259.7 L1045.4 259.7" fill="none" stroke="#38BDF8" stroke-width="6.0" stroke-linecap="round" stroke-linejoin="round"/><path d="M1032.6 259.7 L1013.3 259.7 L1013.3 240.4" fill="none" stroke="#38BDF8" stroke-width="6.0" stroke-linecap="round" stroke-linejoin="round"/>
<rect x="1082" y="201.0" width="66" height="66" rx="13.2" fill="#181b22"/>
<path d="M1089.3 227.6 L1089.3 208.3 L1108.6 208.3" fill="none" stroke="#3B82F6" stroke-width="6.0" stroke-linecap="round" stroke-linejoin="round"/><path d="M1121.4 208.3 L1140.7 208.3 L1140.7 227.6" fill="none" stroke="#3B82F6" stroke-width="6.0" stroke-linecap="round" stroke-linejoin="round"/><path d="M1140.7 240.4 L1140.7 259.7 L1121.4 259.7" fill="none" stroke="#3B82F6" stroke-width="6.0" stroke-linecap="round" stroke-linejoin="round"/><path d="M1108.6 259.7 L1089.3 259.7 L1089.3 240.4" fill="none" stroke="#3B82F6" stroke-width="6.0" stroke-linecap="round" stroke-linejoin="round"/>
<rect x="1158" y="201.0" width="66" height="66" rx="13.2" fill="#181b22"/>
<path d="M1165.3 227.6 L1165.3 208.3 L1184.6 208.3" fill="none" stroke="#6366F1" stroke-width="6.0" stroke-linecap="round" stroke-linejoin="round"/><path d="M1197.4 208.3 L1216.7 208.3 L1216.7 227.6" fill="none" stroke="#6366F1" stroke-width="6.0" stroke-linecap="round" stroke-linejoin="round"/><path d="M1216.7 240.4 L1216.7 259.7 L1197.4 259.7" fill="none" stroke="#6366F1" stroke-width="6.0" stroke-linecap="round" stroke-linejoin="round"/><path d="M1184.6 259.7 L1165.3 259.7 L1165.3 240.4" fill="none" stroke="#6366F1" stroke-width="6.0" stroke-linecap="round" stroke-linejoin="round"/>
<rect x="1234" y="201.0" width="66" height="66" rx="13.2" fill="#181b22"/>
<path d="M1241.3 227.6 L1241.3 208.3 L1260.6 208.3" fill="none" stroke="#8B5CF6" stroke-width="6.0" stroke-linecap="round" stroke-linejoin="round"/><path d="M1273.4 208.3 L1292.7 208.3 L1292.7 227.6" fill="none" stroke="#8B5CF6" stroke-width="6.0" stroke-linecap="round" stroke-linejoin="round"/><path d="M1292.7 240.4 L1292.7 259.7 L1273.4 259.7" fill="none" stroke="#8B5CF6" stroke-width="6.0" stroke-linecap="round" stroke-linejoin="round"/><path d="M1260.6 259.7 L1241.3 259.7 L1241.3 240.4" fill="none" stroke="#8B5CF6" stroke-width="6.0" stroke-linecap="round" stroke-linejoin="round"/>
<rect x="1310" y="201.0" width="66" height="66" rx="13.2" fill="#181b22"/>
<path d="M1317.3 227.6 L1317.3 208.3 L1336.6 208.3" fill="none" stroke="#A855F7" stroke-width="6.0" stroke-linecap="round" stroke-linejoin="round"/><path d="M1349.4 208.3 L1368.7 208.3 L1368.7 227.6" fill="none" stroke="#A855F7" stroke-width="6.0" stroke-linecap="round" stroke-linejoin="round"/><path d="M1368.7 240.4 L1368.7 259.7 L1349.4 259.7" fill="none" stroke="#A855F7" stroke-width="6.0" stroke-linecap="round" stroke-linejoin="round"/><path d="M1336.6 259.7 L1317.3 259.7 L1317.3 240.4" fill="none" stroke="#A855F7" stroke-width="6.0" stroke-linecap="round" stroke-linejoin="round"/>
<rect x="1386" y="201.0" width="66" height="66" rx="13.2" fill="#181b22"/>
<path d="M1393.3 227.6 L1393.3 208.3 L1412.6 208.3" fill="none" stroke="#D946EF" stroke-width="6.0" stroke-linecap="round" stroke-linejoin="round"/><path d="M1425.4 208.3 L1444.7 208.3 L1444.7 227.6" fill="none" stroke="#D946EF" stroke-width="6.0" stroke-linecap="round" stroke-linejoin="round"/><path d="M1444.7 240.4 L1444.7 259.7 L1425.4 259.7" fill="none" stroke="#D946EF" stroke-width="6.0" stroke-linecap="round" stroke-linejoin="round"/><path d="M1412.6 259.7 L1393.3 259.7 L1393.3 240.4" fill="none" stroke="#D946EF" stroke-width="6.0" stroke-linecap="round" stroke-linejoin="round"/>
<rect x="1462" y="201.0" width="66" height="66" rx="13.2" fill="#181b22"/>
<path d="M1469.3 227.6 L1469.3 208.3 L1488.6 208.3" fill="none" stroke="#EC4899" stroke-width="6.0" stroke-linecap="round" stroke-linejoin="round"/><path d="M1501.4 208.3 L1520.7 208.3 L1520.7 227.6" fill="none" stroke="#EC4899" stroke-width="6.0" stroke-linecap="round" stroke-linejoin="round"/><path d="M1520.7 240.4 L1520.7 259.7 L1501.4 259.7" fill="none" stroke="#EC4899" stroke-width="6.0" stroke-linecap="round" stroke-linejoin="round"/><path d="M1488.6 259.7 L1469.3 259.7 L1469.3 240.4" fill="none" stroke="#EC4899" stroke-width="6.0" stroke-linecap="round" stroke-linejoin="round"/>
<rect x="1538" y="201.0" width="66" height="66" rx="13.2" fill="#181b22"/>
<path d="M1545.3 227.6 L1545.3 208.3 L1564.6 208.3" fill="none" stroke="#F43F5E" stroke-width="6.0" stroke-linecap="round" stroke-linejoin="round"/><path d="M1577.4 208.3 L1596.7 208.3 L1596.7 227.6" fill="none" stroke="#F43F5E" stroke-width="6.0" stroke-linecap="round" stroke-linejoin="round"/><path d="M1596.7 240.4 L1596.7 259.7 L1577.4 259.7" fill="none" stroke="#F43F5E" stroke-width="6.0" stroke-linecap="round" stroke-linejoin="round"/><path d="M1564.6 259.7 L1545.3 259.7 L1545.3 240.4" fill="none" stroke="#F43F5E" stroke-width="6.0" stroke-linecap="round" stroke-linejoin="round"/>
<text x="20" y="340.0" fill="#CBD5E1" font-size="16" font-weight="600">Corner Bevel ◤</text>
<rect x="170" y="301.0" width="66" height="66" rx="13.2" fill="#181b22"/>
<clipPath id="cl2_0"><rect x="170.0" y="301.0" width="66" height="66" rx="13.2"/></clipPath><g clip-path="url(#cl2_0)"><path d="M170.0 301.0 L200.2 301.0 L170.0 331.2 Z" fill="#FFFFFF"/><path d="M200.2 301.0 L170.0 331.2" fill="none" stroke="#000" stroke-opacity="0.45" stroke-width="3.2" stroke-linecap="round"/></g>
<rect x="246" y="301.0" width="66" height="66" rx="13.2" fill="#181b22"/>
<clipPath id="cl2_1"><rect x="246.0" y="301.0" width="66" height="66" rx="13.2"/></clipPath><g clip-path="url(#cl2_1)"><path d="M246.0 301.0 L276.2 301.0 L246.0 331.2 Z" fill="#94A3B8"/><path d="M276.2 301.0 L246.0 331.2" fill="none" stroke="#000" stroke-opacity="0.45" stroke-width="3.2" stroke-linecap="round"/></g>
<rect x="322" y="301.0" width="66" height="66" rx="13.2" fill="#181b22"/>
<clipPath id="cl2_2"><rect x="322.0" y="301.0" width="66" height="66" rx="13.2"/></clipPath><g clip-path="url(#cl2_2)"><path d="M322.0 301.0 L352.2 301.0 L322.0 331.2 Z" fill="#EF4444"/><path d="M352.2 301.0 L322.0 331.2" fill="none" stroke="#000" stroke-opacity="0.45" stroke-width="3.2" stroke-linecap="round"/></g>
<rect x="398" y="301.0" width="66" height="66" rx="13.2" fill="#181b22"/>
<clipPath id="cl2_3"><rect x="398.0" y="301.0" width="66" height="66" rx="13.2"/></clipPath><g clip-path="url(#cl2_3)"><path d="M398.0 301.0 L428.2 301.0 L398.0 331.2 Z" fill="#F97316"/><path d="M428.2 301.0 L398.0 331.2" fill="none" stroke="#000" stroke-opacity="0.45" stroke-width="3.2" stroke-linecap="round"/></g>
<rect x="474" y="301.0" width="66" height="66" rx="13.2" fill="#181b22"/>
<clipPath id="cl2_4"><rect x="474.0" y="301.0" width="66" height="66" rx="13.2"/></clipPath><g clip-path="url(#cl2_4)"><path d="M474.0 301.0 L504.2 301.0 L474.0 331.2 Z" fill="#F59E0B"/><path d="M504.2 301.0 L474.0 331.2" fill="none" stroke="#000" stroke-opacity="0.45" stroke-width="3.2" stroke-linecap="round"/></g>
<rect x="550" y="301.0" width="66" height="66" rx="13.2" fill="#181b22"/>
<clipPath id="cl2_5"><rect x="550.0" y="301.0" width="66" height="66" rx="13.2"/></clipPath><g clip-path="url(#cl2_5)"><path d="M550.0 301.0 L580.2 301.0 L550.0 331.2 Z" fill="#FDE047"/><path d="M580.2 301.0 L550.0 331.2" fill="none" stroke="#000" stroke-opacity="0.45" stroke-width="3.2" stroke-linecap="round"/></g>
<rect x="626" y="301.0" width="66" height="66" rx="13.2" fill="#181b22"/>
<clipPath id="cl2_6"><rect x="626.0" y="301.0" width="66" height="66" rx="13.2"/></clipPath><g clip-path="url(#cl2_6)"><path d="M626.0 301.0 L656.2 301.0 L626.0 331.2 Z" fill="#84CC16"/><path d="M656.2 301.0 L626.0 331.2" fill="none" stroke="#000" stroke-opacity="0.45" stroke-width="3.2" stroke-linecap="round"/></g>
<rect x="702" y="301.0" width="66" height="66" rx="13.2" fill="#181b22"/>
<clipPath id="cl2_7"><rect x="702.0" y="301.0" width="66" height="66" rx="13.2"/></clipPath><g clip-path="url(#cl2_7)"><path d="M702.0 301.0 L732.2 301.0 L702.0 331.2 Z" fill="#22C55E"/><path d="M732.2 301.0 L702.0 331.2" fill="none" stroke="#000" stroke-opacity="0.45" stroke-width="3.2" stroke-linecap="round"/></g>
<rect x="778" y="301.0" width="66" height="66" rx="13.2" fill="#181b22"/>
<clipPath id="cl2_8"><rect x="778.0" y="301.0" width="66" height="66" rx="13.2"/></clipPath><g clip-path="url(#cl2_8)"><path d="M778.0 301.0 L808.2 301.0 L778.0 331.2 Z" fill="#10B981"/><path d="M808.2 301.0 L778.0 331.2" fill="none" stroke="#000" stroke-opacity="0.45" stroke-width="3.2" stroke-linecap="round"/></g>
<rect x="854" y="301.0" width="66" height="66" rx="13.2" fill="#181b22"/>
<clipPath id="cl2_9"><rect x="854.0" y="301.0" width="66" height="66" rx="13.2"/></clipPath><g clip-path="url(#cl2_9)"><path d="M854.0 301.0 L884.2 301.0 L854.0 331.2 Z" fill="#14B8A6"/><path d="M884.2 301.0 L854.0 331.2" fill="none" stroke="#000" stroke-opacity="0.45" stroke-width="3.2" stroke-linecap="round"/></g>
<rect x="930" y="301.0" width="66" height="66" rx="13.2" fill="#181b22"/>
<clipPath id="cl2_10"><rect x="930.0" y="301.0" width="66" height="66" rx="13.2"/></clipPath><g clip-path="url(#cl2_10)"><path d="M930.0 301.0 L960.2 301.0 L930.0 331.2 Z" fill="#22D3EE"/><path d="M960.2 301.0 L930.0 331.2" fill="none" stroke="#000" stroke-opacity="0.45" stroke-width="3.2" stroke-linecap="round"/></g>
<rect x="1006" y="301.0" width="66" height="66" rx="13.2" fill="#181b22"/>
<clipPath id="cl2_11"><rect x="1006.0" y="301.0" width="66" height="66" rx="13.2"/></clipPath><g clip-path="url(#cl2_11)"><path d="M1006.0 301.0 L1036.2 301.0 L1006.0 331.2 Z" fill="#38BDF8"/><path d="M1036.2 301.0 L1006.0 331.2" fill="none" stroke="#000" stroke-opacity="0.45" stroke-width="3.2" stroke-linecap="round"/></g>
<rect x="1082" y="301.0" width="66" height="66" rx="13.2" fill="#181b22"/>
<clipPath id="cl2_12"><rect x="1082.0" y="301.0" width="66" height="66" rx="13.2"/></clipPath><g clip-path="url(#cl2_12)"><path d="M1082.0 301.0 L1112.2 301.0 L1082.0 331.2 Z" fill="#3B82F6"/><path d="M1112.2 301.0 L1082.0 331.2" fill="none" stroke="#000" stroke-opacity="0.45" stroke-width="3.2" stroke-linecap="round"/></g>
<rect x="1158" y="301.0" width="66" height="66" rx="13.2" fill="#181b22"/>
<clipPath id="cl2_13"><rect x="1158.0" y="301.0" width="66" height="66" rx="13.2"/></clipPath><g clip-path="url(#cl2_13)"><path d="M1158.0 301.0 L1188.2 301.0 L1158.0 331.2 Z" fill="#6366F1"/><path d="M1188.2 301.0 L1158.0 331.2" fill="none" stroke="#000" stroke-opacity="0.45" stroke-width="3.2" stroke-linecap="round"/></g>
<rect x="1234" y="301.0" width="66" height="66" rx="13.2" fill="#181b22"/>
<clipPath id="cl2_14"><rect x="1234.0" y="301.0" width="66" height="66" rx="13.2"/></clipPath><g clip-path="url(#cl2_14)"><path d="M1234.0 301.0 L1264.2 301.0 L1234.0 331.2 Z" fill="#8B5CF6"/><path d="M1264.2 301.0 L1234.0 331.2" fill="none" stroke="#000" stroke-opacity="0.45" stroke-width="3.2" stroke-linecap="round"/></g>
<rect x="1310" y="301.0" width="66" height="66" rx="13.2" fill="#181b22"/>
<clipPath id="cl2_15"><rect x="1310.0" y="301.0" width="66" height="66" rx="13.2"/></clipPath><g clip-path="url(#cl2_15)"><path d="M1310.0 301.0 L1340.2 301.0 L1310.0 331.2 Z" fill="#A855F7"/><path d="M1340.2 301.0 L1310.0 331.2" fill="none" stroke="#000" stroke-opacity="0.45" stroke-width="3.2" stroke-linecap="round"/></g>
<rect x="1386" y="301.0" width="66" height="66" rx="13.2" fill="#181b22"/>
<clipPath id="cl2_16"><rect x="1386.0" y="301.0" width="66" height="66" rx="13.2"/></clipPath><g clip-path="url(#cl2_16)"><path d="M1386.0 301.0 L1416.2 301.0 L1386.0 331.2 Z" fill="#D946EF"/><path d="M1416.2 301.0 L1386.0 331.2" fill="none" stroke="#000" stroke-opacity="0.45" stroke-width="3.2" stroke-linecap="round"/></g>
<rect x="1462" y="301.0" width="66" height="66" rx="13.2" fill="#181b22"/>
<clipPath id="cl2_17"><rect x="1462.0" y="301.0" width="66" height="66" rx="13.2"/></clipPath><g clip-path="url(#cl2_17)"><path d="M1462.0 301.0 L1492.2 301.0 L1462.0 331.2 Z" fill="#EC4899"/><path d="M1492.2 301.0 L1462.0 331.2" fill="none" stroke="#000" stroke-opacity="0.45" stroke-width="3.2" stroke-linecap="round"/></g>
<rect x="1538" y="301.0" width="66" height="66" rx="13.2" fill="#181b22"/>
<clipPath id="cl2_18"><rect x="1538.0" y="301.0" width="66" height="66" rx="13.2"/></clipPath><g clip-path="url(#cl2_18)"><path d="M1538.0 301.0 L1568.2 301.0 L1538.0 331.2 Z" fill="#F43F5E"/><path d="M1568.2 301.0 L1538.0 331.2" fill="none" stroke="#000" stroke-opacity="0.45" stroke-width="3.2" stroke-linecap="round"/></g>
<text x="20" y="440.0" fill="#CBD5E1" font-size="16" font-weight="600">Corner Bevel ◥</text>
<rect x="170" y="401.0" width="66" height="66" rx="13.2" fill="#181b22"/>
<clipPath id="cr3_0"><rect x="170.0" y="401.0" width="66" height="66" rx="13.2"/></clipPath><g clip-path="url(#cr3_0)"><path d="M236.0 401.0 L205.8 401.0 L236.0 431.2 Z" fill="#FFFFFF"/><path d="M205.8 401.0 L236.0 431.2" fill="none" stroke="#000" stroke-opacity="0.45" stroke-width="3.2" stroke-linecap="round"/></g>
<rect x="246" y="401.0" width="66" height="66" rx="13.2" fill="#181b22"/>
<clipPath id="cr3_1"><rect x="246.0" y="401.0" width="66" height="66" rx="13.2"/></clipPath><g clip-path="url(#cr3_1)"><path d="M312.0 401.0 L281.8 401.0 L312.0 431.2 Z" fill="#94A3B8"/><path d="M281.8 401.0 L312.0 431.2" fill="none" stroke="#000" stroke-opacity="0.45" stroke-width="3.2" stroke-linecap="round"/></g>
<rect x="322" y="401.0" width="66" height="66" rx="13.2" fill="#181b22"/>
<clipPath id="cr3_2"><rect x="322.0" y="401.0" width="66" height="66" rx="13.2"/></clipPath><g clip-path="url(#cr3_2)"><path d="M388.0 401.0 L357.8 401.0 L388.0 431.2 Z" fill="#EF4444"/><path d="M357.8 401.0 L388.0 431.2" fill="none" stroke="#000" stroke-opacity="0.45" stroke-width="3.2" stroke-linecap="round"/></g>
<rect x="398" y="401.0" width="66" height="66" rx="13.2" fill="#181b22"/>
<clipPath id="cr3_3"><rect x="398.0" y="401.0" width="66" height="66" rx="13.2"/></clipPath><g clip-path="url(#cr3_3)"><path d="M464.0 401.0 L433.8 401.0 L464.0 431.2 Z" fill="#F97316"/><path d="M433.8 401.0 L464.0 431.2" fill="none" stroke="#000" stroke-opacity="0.45" stroke-width="3.2" stroke-linecap="round"/></g>
<rect x="474" y="401.0" width="66" height="66" rx="13.2" fill="#181b22"/>
<clipPath id="cr3_4"><rect x="474.0" y="401.0" width="66" height="66" rx="13.2"/></clipPath><g clip-path="url(#cr3_4)"><path d="M540.0 401.0 L509.8 401.0 L540.0 431.2 Z" fill="#F59E0B"/><path d="M509.8 401.0 L540.0 431.2" fill="none" stroke="#000" stroke-opacity="0.45" stroke-width="3.2" stroke-linecap="round"/></g>
<rect x="550" y="401.0" width="66" height="66" rx="13.2" fill="#181b22"/>
<clipPath id="cr3_5"><rect x="550.0" y="401.0" width="66" height="66" rx="13.2"/></clipPath><g clip-path="url(#cr3_5)"><path d="M616.0 401.0 L585.8 401.0 L616.0 431.2 Z" fill="#FDE047"/><path d="M585.8 401.0 L616.0 431.2" fill="none" stroke="#000" stroke-opacity="0.45" stroke-width="3.2" stroke-linecap="round"/></g>
<rect x="626" y="401.0" width="66" height="66" rx="13.2" fill="#181b22"/>
<clipPath id="cr3_6"><rect x="626.0" y="401.0" width="66" height="66" rx="13.2"/></clipPath><g clip-path="url(#cr3_6)"><path d="M692.0 401.0 L661.8 401.0 L692.0 431.2 Z" fill="#84CC16"/><path d="M661.8 401.0 L692.0 431.2" fill="none" stroke="#000" stroke-opacity="0.45" stroke-width="3.2" stroke-linecap="round"/></g>
<rect x="702" y="401.0" width="66" height="66" rx="13.2" fill="#181b22"/>
<clipPath id="cr3_7"><rect x="702.0" y="401.0" width="66" height="66" rx="13.2"/></clipPath><g clip-path="url(#cr3_7)"><path d="M768.0 401.0 L737.8 401.0 L768.0 431.2 Z" fill="#22C55E"/><path d="M737.8 401.0 L768.0 431.2" fill="none" stroke="#000" stroke-opacity="0.45" stroke-width="3.2" stroke-linecap="round"/></g>
<rect x="778" y="401.0" width="66" height="66" rx="13.2" fill="#181b22"/>
<clipPath id="cr3_8"><rect x="778.0" y="401.0" width="66" height="66" rx="13.2"/></clipPath><g clip-path="url(#cr3_8)"><path d="M844.0 401.0 L813.8 401.0 L844.0 431.2 Z" fill="#10B981"/><path d="M813.8 401.0 L844.0 431.2" fill="none" stroke="#000" stroke-opacity="0.45" stroke-width="3.2" stroke-linecap="round"/></g>
<rect x="854" y="401.0" width="66" height="66" rx="13.2" fill="#181b22"/>
<clipPath id="cr3_9"><rect x="854.0" y="401.0" width="66" height="66" rx="13.2"/></clipPath><g clip-path="url(#cr3_9)"><path d="M920.0 401.0 L889.8 401.0 L920.0 431.2 Z" fill="#14B8A6"/><path d="M889.8 401.0 L920.0 431.2" fill="none" stroke="#000" stroke-opacity="0.45" stroke-width="3.2" stroke-linecap="round"/></g>
<rect x="930" y="401.0" width="66" height="66" rx="13.2" fill="#181b22"/>
<clipPath id="cr3_10"><rect x="930.0" y="401.0" width="66" height="66" rx="13.2"/></clipPath><g clip-path="url(#cr3_10)"><path d="M996.0 401.0 L965.8 401.0 L996.0 431.2 Z" fill="#22D3EE"/><path d="M965.8 401.0 L996.0 431.2" fill="none" stroke="#000" stroke-opacity="0.45" stroke-width="3.2" stroke-linecap="round"/></g>
<rect x="1006" y="401.0" width="66" height="66" rx="13.2" fill="#181b22"/>
<clipPath id="cr3_11"><rect x="1006.0" y="401.0" width="66" height="66" rx="13.2"/></clipPath><g clip-path="url(#cr3_11)"><path d="M1072.0 401.0 L1041.8 401.0 L1072.0 431.2 Z" fill="#38BDF8"/><path d="M1041.8 401.0 L1072.0 431.2" fill="none" stroke="#000" stroke-opacity="0.45" stroke-width="3.2" stroke-linecap="round"/></g>
<rect x="1082" y="401.0" width="66" height="66" rx="13.2" fill="#181b22"/>
<clipPath id="cr3_12"><rect x="1082.0" y="401.0" width="66" height="66" rx="13.2"/></clipPath><g clip-path="url(#cr3_12)"><path d="M1148.0 401.0 L1117.8 401.0 L1148.0 431.2 Z" fill="#3B82F6"/><path d="M1117.8 401.0 L1148.0 431.2" fill="none" stroke="#000" stroke-opacity="0.45" stroke-width="3.2" stroke-linecap="round"/></g>
<rect x="1158" y="401.0" width="66" height="66" rx="13.2" fill="#181b22"/>
<clipPath id="cr3_13"><rect x="1158.0" y="401.0" width="66" height="66" rx="13.2"/></clipPath><g clip-path="url(#cr3_13)"><path d="M1224.0 401.0 L1193.8 401.0 L1224.0 431.2 Z" fill="#6366F1"/><path d="M1193.8 401.0 L1224.0 431.2" fill="none" stroke="#000" stroke-opacity="0.45" stroke-width="3.2" stroke-linecap="round"/></g>
<rect x="1234" y="401.0" width="66" height="66" rx="13.2" fill="#181b22"/>
<clipPath id="cr3_14"><rect x="1234.0" y="401.0" width="66" height="66" rx="13.2"/></clipPath><g clip-path="url(#cr3_14)"><path d="M1300.0 401.0 L1269.8 401.0 L1300.0 431.2 Z" fill="#8B5CF6"/><path d="M1269.8 401.0 L1300.0 431.2" fill="none" stroke="#000" stroke-opacity="0.45" stroke-width="3.2" stroke-linecap="round"/></g>
<rect x="1310" y="401.0" width="66" height="66" rx="13.2" fill="#181b22"/>
<clipPath id="cr3_15"><rect x="1310.0" y="401.0" width="66" height="66" rx="13.2"/></clipPath><g clip-path="url(#cr3_15)"><path d="M1376.0 401.0 L1345.8 401.0 L1376.0 431.2 Z" fill="#A855F7"/><path d="M1345.8 401.0 L1376.0 431.2" fill="none" stroke="#000" stroke-opacity="0.45" stroke-width="3.2" stroke-linecap="round"/></g>
<rect x="1386" y="401.0" width="66" height="66" rx="13.2" fill="#181b22"/>
<clipPath id="cr3_16"><rect x="1386.0" y="401.0" width="66" height="66" rx="13.2"/></clipPath><g clip-path="url(#cr3_16)"><path d="M1452.0 401.0 L1421.8 401.0 L1452.0 431.2 Z" fill="#D946EF"/><path d="M1421.8 401.0 L1452.0 431.2" fill="none" stroke="#000" stroke-opacity="0.45" stroke-width="3.2" stroke-linecap="round"/></g>
<rect x="1462" y="401.0" width="66" height="66" rx="13.2" fill="#181b22"/>
<clipPath id="cr3_17"><rect x="1462.0" y="401.0" width="66" height="66" rx="13.2"/></clipPath><g clip-path="url(#cr3_17)"><path d="M1528.0 401.0 L1497.8 401.0 L1528.0 431.2 Z" fill="#EC4899"/><path d="M1497.8 401.0 L1528.0 431.2" fill="none" stroke="#000" stroke-opacity="0.45" stroke-width="3.2" stroke-linecap="round"/></g>
<rect x="1538" y="401.0" width="66" height="66" rx="13.2" fill="#181b22"/>
<clipPath id="cr3_18"><rect x="1538.0" y="401.0" width="66" height="66" rx="13.2"/></clipPath><g clip-path="url(#cr3_18)"><path d="M1604.0 401.0 L1573.8 401.0 L1604.0 431.2 Z" fill="#F43F5E"/><path d="M1573.8 401.0 L1604.0 431.2" fill="none" stroke="#000" stroke-opacity="0.45" stroke-width="3.2" stroke-linecap="round"/></g>
</svg>
